<svg xmlns="http://www.w3.org/2000/svg" version="1.1" xmlns:xlink="http://www.w3.org/1999/xlink" xmlns:svgjs="http://svgjs.dev/svgjs" width="1000" height="636" viewBox="0 0 1000 636"><g transform="matrix(1,0,0,1,-0.44006347491193765,0)"><svg viewBox="0 0 314 200" data-background-color="#ffffff" preserveAspectRatio="xMidYMid meet" height="636" width="1000" xmlns="http://www.w3.org/2000/svg" xmlns:xlink="http://www.w3.org/1999/xlink"><g id="tight-bounds" transform="matrix(1,0,0,1,0.13817993112235172,0)"><svg viewBox="0 0 313.7236401377553 200" height="200" width="313.7236401377553"><g><svg viewBox="0 0 313.7236401377553 200" height="200" width="313.7236401377553"><g><svg viewBox="0 0 313.7236401377553 200" height="200" width="313.7236401377553"><g id="textblocktransform"><svg viewBox="0 0 313.7236401377553 200" height="200" width="313.7236401377553" id="textblock"><g><svg viewBox="0 0 313.7236401377553 200" height="200" width="313.7236401377553"><g transform="matrix(1,0,0,1,0,0)"><svg width="313.7236401377553" viewBox="0.2999999999999991 -34.800000000000004 118.75 72.65" height="200" data-palette-color="url(#0dae5498-77c9-486d-bf64-9784158f49f0)"><svg></svg><svg></svg><g class="wordmark-text-0" data-fill-palette-color="primary" id="text-0"></g></svg></g></svg></g></svg></g></svg></g></svg></g><defs></defs><mask id="11af74db-9fab-44ee-b137-9b75b1dd61fc"><g id="SvgjsG1127"><svg viewBox="0 0 313.7236401377553 200" height="200" width="313.7236401377553"><g><svg viewBox="0 0 313.7236401377553 200" height="200" width="313.7236401377553"><g><svg viewBox="0 0 313.7236401377553 200" height="200" width="313.7236401377553"><g id="SvgjsG1126"><svg viewBox="0 0 313.7236401377553 200" height="200" width="313.7236401377553" id="SvgjsSvg1125"><g><svg viewBox="0 0 313.7236401377553 200" height="200" width="313.7236401377553"><g transform="matrix(1,0,0,1,0,0)"><svg width="313.7236401377553" viewBox="0.2999999999999991 -34.800000000000004 118.75 72.65" height="200" data-palette-color="url(#0dae5498-77c9-486d-bf64-9784158f49f0)"><svg></svg><svg></svg><g class="wordmark-text-0" data-fill-palette-color="primary" id="SvgjsG1124"><path d="M0.3-0.25v0l6.2-34.35c0.033-0.133 0.117-0.2 0.25-0.2v0h7.25c0.133 0 0.217 0.067 0.25 0.2v0l5.95 34.35c0.033 0.167-0.033 0.25-0.2 0.25v0h-5.55c-0.133 0-0.217-0.083-0.25-0.25v0l-0.55-3.65h-6.8l-0.55 3.65c-0.033 0.167-0.117 0.25-0.25 0.25v0h-5.55c-0.133 0-0.2-0.083-0.2-0.25zM10.1-23.3l-2.25 14.05h4.8l-2.05-14.05-0.3-1.85zM28.8 0h-5c-0.267 0-0.4-0.117-0.4-0.35v0l-0.05-34.05c0-0.267 0.133-0.4 0.4-0.4v0h4.5l8.45 19.7-0.25-19.3c0-0.267 0.15-0.4 0.45-0.4v0h4.95c0.2 0 0.3 0.133 0.3 0.4v0l0.05 34.1c0 0.2-0.083 0.3-0.25 0.3v0h-4.4l-8.65-18.4 0.35 18c0 0.267-0.15 0.4-0.45 0.4zM52.45 0h-5.65c-0.167 0-0.25-0.083-0.25-0.25v0l0.05-34.35c0-0.133 0.067-0.2 0.2-0.2v0h5.6c0.133 0 0.2 0.067 0.2 0.2v0l0.05 34.35c0 0.167-0.067 0.25-0.2 0.25zM62.9 0h-5.65c-0.133 0-0.2-0.083-0.2-0.25v0l0.1-34.3c0-0.167 0.067-0.25 0.2-0.25v0h5.6c0.133 0 0.2 0.083 0.2 0.25v0 11.85l7.85-11.9c0.1-0.133 0.217-0.2 0.35-0.2v0h5.75c0.133 0 0.167 0.067 0.1 0.2v0l-8.65 13.8 9.7 20.6c0.067 0.133-0.017 0.2-0.25 0.2v0h-6.1c-0.167 0-0.267-0.067-0.3-0.2v0l-6.75-14.7-1.75 2.75v11.9c0 0.167-0.067 0.25-0.2 0.25zM96.85 0h-16.15c-0.133 0-0.2-0.083-0.2-0.25v0l0.05-34.35c0-0.133 0.067-0.2 0.2-0.2v0h16.05c0.133 0 0.2 0.083 0.2 0.25v0 5.6c0 0.133-0.067 0.2-0.2 0.2v0h-10.25v7.8h10.25c0.133 0 0.2 0.067 0.2 0.2v0l0.05 5.65c0 0.133-0.067 0.2-0.2 0.2v0h-10.3v8.75h10.3c0.133 0 0.2 0.083 0.2 0.25v0 5.7c0 0.133-0.067 0.2-0.2 0.2zM112.15 0h-5.65c-0.133 0-0.2-0.083-0.2-0.25v0-28.5h-6.5c-0.167 0-0.25-0.083-0.25-0.25v0l0.05-5.6c0-0.133 0.067-0.2 0.2-0.2v0h19c0.167 0 0.25 0.067 0.25 0.2v0 5.6c0 0.167-0.067 0.25-0.2 0.25v0h-6.55l0.05 28.5c0 0.167-0.067 0.25-0.2 0.25z" fill="white" fill-rule="nonzero" stroke="none" stroke-width="1" stroke-linecap="butt" stroke-linejoin="miter" stroke-miterlimit="10" stroke-dasharray="" stroke-dashoffset="0" font-family="none" font-weight="none" font-size="none" text-anchor="none" style="mix-blend-mode: normal" opacity="1"></path><path d="M11.2 37.8l-8.95 0.05c-0.167 0-0.25-0.083-0.25-0.25v0l0.1-34.35c0-0.133 0.067-0.2 0.2-0.2v0l9.35-0.05c1.833-0.033 3.51 0.4 5.03 1.3 1.513 0.9 2.72 2.107 3.62 3.62 0.9 1.52 1.35 3.197 1.35 5.03v0 14.35c0 1.933-0.467 3.69-1.4 5.27-0.933 1.587-2.183 2.847-3.75 3.78-1.567 0.933-3.333 1.417-5.3 1.45zM8.15 9.05l-0.05 22.65h3.1c1.233 0 2.277-0.433 3.13-1.3 0.847-0.867 1.27-1.9 1.27-3.1v0-14.4c0-1.067-0.39-1.993-1.17-2.78-0.787-0.78-1.713-1.153-2.78-1.12v0zM22.4 37.6v0l6.2-34.35c0.033-0.133 0.117-0.2 0.25-0.2v0h7.25c0.133 0 0.217 0.067 0.25 0.2v0l5.95 34.35c0.033 0.167-0.033 0.25-0.2 0.25v0h-5.55c-0.133 0-0.217-0.083-0.25-0.25v0l-0.55-3.65h-6.8l-0.55 3.65c-0.033 0.167-0.117 0.25-0.25 0.25v0h-5.55c-0.133 0-0.2-0.083-0.2-0.25zM32.2 14.55l-2.25 14.05h4.8l-2.05-14.05-0.3-1.85zM51.3 37.85h-5.65c-0.133 0-0.2-0.083-0.2-0.25v0l0.1-34.35c0-0.133 0.067-0.2 0.2-0.2v0h10.1c1.8 0 3.46 0.44 4.98 1.32 1.513 0.887 2.72 2.07 3.62 3.55 0.9 1.487 1.35 3.163 1.35 5.03v0c0 1.233-0.183 2.34-0.55 3.32-0.367 0.987-0.8 1.823-1.3 2.51-0.5 0.68-0.95 1.187-1.35 1.52v0c1.8 2 2.7 4.35 2.7 7.05v0l0.05 10.25c0 0.167-0.083 0.25-0.25 0.25v0h-5.65c-0.133 0-0.2-0.05-0.2-0.15v0-10.35c0-1.2-0.423-2.243-1.27-3.13-0.853-0.88-1.897-1.32-3.13-1.32v0h-3.3l-0.05 14.7c0 0.167-0.067 0.25-0.2 0.25zM51.55 9.05v7.85h4.3c1.033 0 1.95-0.383 2.75-1.15 0.8-0.767 1.2-1.7 1.2-2.8v0c0-1.067-0.39-1.983-1.17-2.75-0.787-0.767-1.713-1.15-2.78-1.15v0zM75.4 37.85h-5.6c-0.167 0-0.25-0.083-0.25-0.25v0l0.1-34.35c0-0.133 0.067-0.2 0.2-0.2v0h9.6c3.067 0 5.493 0.933 7.28 2.8 1.78 1.867 2.67 4.4 2.67 7.6v0c0 2.367-0.467 4.417-1.4 6.15-0.933 1.733-2.15 3.067-3.65 4-1.5 0.933-3.133 1.4-4.9 1.4v0h-3.8v12.6c0 0.167-0.083 0.25-0.25 0.25zM75.65 9.05v9.9h3.8c1.067 0 1.993-0.51 2.78-1.53 0.78-1.013 1.17-2.337 1.17-3.97v0c0-1.3-0.35-2.367-1.05-3.2-0.7-0.833-1.667-1.25-2.9-1.25v0z" fill="white" fill-rule="nonzero" stroke="none" stroke-width="1" stroke-linecap="butt" stroke-linejoin="miter" stroke-miterlimit="10" stroke-dasharray="" stroke-dashoffset="0" font-family="none" font-weight="none" font-size="none" text-anchor="none" style="mix-blend-mode: normal" opacity="1"></path></g></svg></g></svg></g></svg></g></svg></g></svg></g><defs><mask></mask></defs></svg></g></mask><linearGradient x1="0" x2="1" y1="0.578" y2="0.595" id="0dae5498-77c9-486d-bf64-9784158f49f0"><stop stop-color="#dede50" offset="0"></stop><stop stop-color="#559c49" offset="1"></stop></linearGradient><rect width="313.7236401377553" height="200" fill="url(#0dae5498-77c9-486d-bf64-9784158f49f0)" mask="url(#11af74db-9fab-44ee-b137-9b75b1dd61fc)" data-fill-palette-color="primary"></rect></svg><rect width="313.7236401377553" height="200" fill="none" stroke="none" visibility="hidden"></rect></g></svg></g></svg>